<mxfile host="app.diagrams.net" modified="2023-06-13T23:56:56.021Z" agent="Mozilla/5.0 (X11; Ubuntu; Linux x86_64; rv:109.0) Gecko/20100101 Firefox/113.0" etag="thfBp2TdeSqSZJCkZ5ze" version="21.3.8" type="device" pages="2">
  <diagram name="Modelo Relacional" id="CXCVMEYy1s_H9XKr-uPt">
    <mxGraphModel dx="954" dy="598" grid="1" gridSize="10" guides="1" tooltips="1" connect="1" arrows="1" fold="1" page="1" pageScale="1" pageWidth="827" pageHeight="1169" math="0" shadow="0">
      <root>
        <mxCell id="0" />
        <mxCell id="1" parent="0" />
        <mxCell id="_0kthYY2hkkztWUv-s_5-1" value="Alumnos" style="shape=table;startSize=30;container=1;collapsible=1;childLayout=tableLayout;fixedRows=1;rowLines=0;fontStyle=1;align=center;resizeLast=1;html=1;" parent="1" vertex="1">
          <mxGeometry x="324" y="290" width="180" height="210" as="geometry" />
        </mxCell>
        <mxCell id="_0kthYY2hkkztWUv-s_5-2" value="" style="shape=tableRow;horizontal=0;startSize=0;swimlaneHead=0;swimlaneBody=0;fillColor=none;collapsible=0;dropTarget=0;points=[[0,0.5],[1,0.5]];portConstraint=eastwest;top=0;left=0;right=0;bottom=1;" parent="_0kthYY2hkkztWUv-s_5-1" vertex="1">
          <mxGeometry y="30" width="180" height="30" as="geometry" />
        </mxCell>
        <mxCell id="_0kthYY2hkkztWUv-s_5-3" value="PK" style="shape=partialRectangle;connectable=0;fillColor=none;top=0;left=0;bottom=0;right=0;fontStyle=1;overflow=hidden;whiteSpace=wrap;html=1;" parent="_0kthYY2hkkztWUv-s_5-2" vertex="1">
          <mxGeometry width="30" height="30" as="geometry">
            <mxRectangle width="30" height="30" as="alternateBounds" />
          </mxGeometry>
        </mxCell>
        <mxCell id="_0kthYY2hkkztWUv-s_5-4" value="Id_alumnos (string)" style="shape=partialRectangle;connectable=0;fillColor=none;top=0;left=0;bottom=0;right=0;align=left;spacingLeft=6;fontStyle=5;overflow=hidden;whiteSpace=wrap;html=1;" parent="_0kthYY2hkkztWUv-s_5-2" vertex="1">
          <mxGeometry x="30" width="150" height="30" as="geometry">
            <mxRectangle width="150" height="30" as="alternateBounds" />
          </mxGeometry>
        </mxCell>
        <mxCell id="_0kthYY2hkkztWUv-s_5-5" value="" style="shape=tableRow;horizontal=0;startSize=0;swimlaneHead=0;swimlaneBody=0;fillColor=none;collapsible=0;dropTarget=0;points=[[0,0.5],[1,0.5]];portConstraint=eastwest;top=0;left=0;right=0;bottom=0;" parent="_0kthYY2hkkztWUv-s_5-1" vertex="1">
          <mxGeometry y="60" width="180" height="30" as="geometry" />
        </mxCell>
        <mxCell id="_0kthYY2hkkztWUv-s_5-6" value="" style="shape=partialRectangle;connectable=0;fillColor=none;top=0;left=0;bottom=0;right=0;editable=1;overflow=hidden;whiteSpace=wrap;html=1;" parent="_0kthYY2hkkztWUv-s_5-5" vertex="1">
          <mxGeometry width="30" height="30" as="geometry">
            <mxRectangle width="30" height="30" as="alternateBounds" />
          </mxGeometry>
        </mxCell>
        <mxCell id="_0kthYY2hkkztWUv-s_5-7" value="Nombre (string)" style="shape=partialRectangle;connectable=0;fillColor=none;top=0;left=0;bottom=0;right=0;align=left;spacingLeft=6;overflow=hidden;whiteSpace=wrap;html=1;" parent="_0kthYY2hkkztWUv-s_5-5" vertex="1">
          <mxGeometry x="30" width="150" height="30" as="geometry">
            <mxRectangle width="150" height="30" as="alternateBounds" />
          </mxGeometry>
        </mxCell>
        <mxCell id="_0kthYY2hkkztWUv-s_5-8" value="" style="shape=tableRow;horizontal=0;startSize=0;swimlaneHead=0;swimlaneBody=0;fillColor=none;collapsible=0;dropTarget=0;points=[[0,0.5],[1,0.5]];portConstraint=eastwest;top=0;left=0;right=0;bottom=0;" parent="_0kthYY2hkkztWUv-s_5-1" vertex="1">
          <mxGeometry y="90" width="180" height="30" as="geometry" />
        </mxCell>
        <mxCell id="_0kthYY2hkkztWUv-s_5-9" value="" style="shape=partialRectangle;connectable=0;fillColor=none;top=0;left=0;bottom=0;right=0;editable=1;overflow=hidden;whiteSpace=wrap;html=1;" parent="_0kthYY2hkkztWUv-s_5-8" vertex="1">
          <mxGeometry width="30" height="30" as="geometry">
            <mxRectangle width="30" height="30" as="alternateBounds" />
          </mxGeometry>
        </mxCell>
        <mxCell id="_0kthYY2hkkztWUv-s_5-10" value="Apellido (string)" style="shape=partialRectangle;connectable=0;fillColor=none;top=0;left=0;bottom=0;right=0;align=left;spacingLeft=6;overflow=hidden;whiteSpace=wrap;html=1;" parent="_0kthYY2hkkztWUv-s_5-8" vertex="1">
          <mxGeometry x="30" width="150" height="30" as="geometry">
            <mxRectangle width="150" height="30" as="alternateBounds" />
          </mxGeometry>
        </mxCell>
        <mxCell id="_0kthYY2hkkztWUv-s_5-46" value="" style="shape=tableRow;horizontal=0;startSize=0;swimlaneHead=0;swimlaneBody=0;fillColor=none;collapsible=0;dropTarget=0;points=[[0,0.5],[1,0.5]];portConstraint=eastwest;top=0;left=0;right=0;bottom=0;" parent="_0kthYY2hkkztWUv-s_5-1" vertex="1">
          <mxGeometry y="120" width="180" height="30" as="geometry" />
        </mxCell>
        <mxCell id="_0kthYY2hkkztWUv-s_5-47" value="" style="shape=partialRectangle;connectable=0;fillColor=none;top=0;left=0;bottom=0;right=0;editable=1;overflow=hidden;whiteSpace=wrap;html=1;" parent="_0kthYY2hkkztWUv-s_5-46" vertex="1">
          <mxGeometry width="30" height="30" as="geometry">
            <mxRectangle width="30" height="30" as="alternateBounds" />
          </mxGeometry>
        </mxCell>
        <mxCell id="_0kthYY2hkkztWUv-s_5-48" value="NªLegajo (int)" style="shape=partialRectangle;connectable=0;fillColor=none;top=0;left=0;bottom=0;right=0;align=left;spacingLeft=6;overflow=hidden;whiteSpace=wrap;html=1;" parent="_0kthYY2hkkztWUv-s_5-46" vertex="1">
          <mxGeometry x="30" width="150" height="30" as="geometry">
            <mxRectangle width="150" height="30" as="alternateBounds" />
          </mxGeometry>
        </mxCell>
        <mxCell id="2o7agqwWr6afrbePRTP4-20" value="" style="shape=tableRow;horizontal=0;startSize=0;swimlaneHead=0;swimlaneBody=0;fillColor=none;collapsible=0;dropTarget=0;points=[[0,0.5],[1,0.5]];portConstraint=eastwest;top=0;left=0;right=0;bottom=0;" parent="_0kthYY2hkkztWUv-s_5-1" vertex="1">
          <mxGeometry y="150" width="180" height="30" as="geometry" />
        </mxCell>
        <mxCell id="2o7agqwWr6afrbePRTP4-21" value="" style="shape=partialRectangle;connectable=0;fillColor=none;top=0;left=0;bottom=0;right=0;editable=1;overflow=hidden;whiteSpace=wrap;html=1;" parent="2o7agqwWr6afrbePRTP4-20" vertex="1">
          <mxGeometry width="30" height="30" as="geometry">
            <mxRectangle width="30" height="30" as="alternateBounds" />
          </mxGeometry>
        </mxCell>
        <mxCell id="2o7agqwWr6afrbePRTP4-22" value="Contraseña (varchar)" style="shape=partialRectangle;connectable=0;fillColor=none;top=0;left=0;bottom=0;right=0;align=left;spacingLeft=6;overflow=hidden;whiteSpace=wrap;html=1;" parent="2o7agqwWr6afrbePRTP4-20" vertex="1">
          <mxGeometry x="30" width="150" height="30" as="geometry">
            <mxRectangle width="150" height="30" as="alternateBounds" />
          </mxGeometry>
        </mxCell>
        <mxCell id="_0kthYY2hkkztWUv-s_5-173" value="" style="shape=tableRow;horizontal=0;startSize=0;swimlaneHead=0;swimlaneBody=0;fillColor=none;collapsible=0;dropTarget=0;points=[[0,0.5],[1,0.5]];portConstraint=eastwest;top=0;left=0;right=0;bottom=1;" parent="_0kthYY2hkkztWUv-s_5-1" vertex="1">
          <mxGeometry y="180" width="180" height="30" as="geometry" />
        </mxCell>
        <mxCell id="_0kthYY2hkkztWUv-s_5-174" value="FK" style="shape=partialRectangle;connectable=0;fillColor=none;top=0;left=0;bottom=0;right=0;fontStyle=1;overflow=hidden;whiteSpace=wrap;html=1;" parent="_0kthYY2hkkztWUv-s_5-173" vertex="1">
          <mxGeometry width="30" height="30" as="geometry">
            <mxRectangle width="30" height="30" as="alternateBounds" />
          </mxGeometry>
        </mxCell>
        <mxCell id="_0kthYY2hkkztWUv-s_5-175" value="Id_cursos (inter)" style="shape=partialRectangle;connectable=0;fillColor=none;top=0;left=0;bottom=0;right=0;align=left;spacingLeft=6;fontStyle=5;overflow=hidden;whiteSpace=wrap;html=1;" parent="_0kthYY2hkkztWUv-s_5-173" vertex="1">
          <mxGeometry x="30" width="150" height="30" as="geometry">
            <mxRectangle width="150" height="30" as="alternateBounds" />
          </mxGeometry>
        </mxCell>
        <mxCell id="_0kthYY2hkkztWUv-s_5-49" value="Profesores" style="shape=table;startSize=30;container=1;collapsible=1;childLayout=tableLayout;fixedRows=1;rowLines=0;fontStyle=1;align=center;resizeLast=1;html=1;" parent="1" vertex="1">
          <mxGeometry x="921" y="320" width="180" height="210" as="geometry" />
        </mxCell>
        <mxCell id="_0kthYY2hkkztWUv-s_5-50" value="" style="shape=tableRow;horizontal=0;startSize=0;swimlaneHead=0;swimlaneBody=0;fillColor=none;collapsible=0;dropTarget=0;points=[[0,0.5],[1,0.5]];portConstraint=eastwest;top=0;left=0;right=0;bottom=1;" parent="_0kthYY2hkkztWUv-s_5-49" vertex="1">
          <mxGeometry y="30" width="180" height="30" as="geometry" />
        </mxCell>
        <mxCell id="_0kthYY2hkkztWUv-s_5-51" value="PK" style="shape=partialRectangle;connectable=0;fillColor=none;top=0;left=0;bottom=0;right=0;fontStyle=1;overflow=hidden;whiteSpace=wrap;html=1;" parent="_0kthYY2hkkztWUv-s_5-50" vertex="1">
          <mxGeometry width="30" height="30" as="geometry">
            <mxRectangle width="30" height="30" as="alternateBounds" />
          </mxGeometry>
        </mxCell>
        <mxCell id="_0kthYY2hkkztWUv-s_5-52" value="Id_profesores (string)" style="shape=partialRectangle;connectable=0;fillColor=none;top=0;left=0;bottom=0;right=0;align=left;spacingLeft=6;fontStyle=5;overflow=hidden;whiteSpace=wrap;html=1;" parent="_0kthYY2hkkztWUv-s_5-50" vertex="1">
          <mxGeometry x="30" width="150" height="30" as="geometry">
            <mxRectangle width="150" height="30" as="alternateBounds" />
          </mxGeometry>
        </mxCell>
        <mxCell id="_0kthYY2hkkztWUv-s_5-53" value="" style="shape=tableRow;horizontal=0;startSize=0;swimlaneHead=0;swimlaneBody=0;fillColor=none;collapsible=0;dropTarget=0;points=[[0,0.5],[1,0.5]];portConstraint=eastwest;top=0;left=0;right=0;bottom=0;" parent="_0kthYY2hkkztWUv-s_5-49" vertex="1">
          <mxGeometry y="60" width="180" height="30" as="geometry" />
        </mxCell>
        <mxCell id="_0kthYY2hkkztWUv-s_5-54" value="" style="shape=partialRectangle;connectable=0;fillColor=none;top=0;left=0;bottom=0;right=0;editable=1;overflow=hidden;whiteSpace=wrap;html=1;" parent="_0kthYY2hkkztWUv-s_5-53" vertex="1">
          <mxGeometry width="30" height="30" as="geometry">
            <mxRectangle width="30" height="30" as="alternateBounds" />
          </mxGeometry>
        </mxCell>
        <mxCell id="_0kthYY2hkkztWUv-s_5-55" value="Nombre (string)" style="shape=partialRectangle;connectable=0;fillColor=none;top=0;left=0;bottom=0;right=0;align=left;spacingLeft=6;overflow=hidden;whiteSpace=wrap;html=1;" parent="_0kthYY2hkkztWUv-s_5-53" vertex="1">
          <mxGeometry x="30" width="150" height="30" as="geometry">
            <mxRectangle width="150" height="30" as="alternateBounds" />
          </mxGeometry>
        </mxCell>
        <mxCell id="_0kthYY2hkkztWUv-s_5-56" value="" style="shape=tableRow;horizontal=0;startSize=0;swimlaneHead=0;swimlaneBody=0;fillColor=none;collapsible=0;dropTarget=0;points=[[0,0.5],[1,0.5]];portConstraint=eastwest;top=0;left=0;right=0;bottom=0;" parent="_0kthYY2hkkztWUv-s_5-49" vertex="1">
          <mxGeometry y="90" width="180" height="30" as="geometry" />
        </mxCell>
        <mxCell id="_0kthYY2hkkztWUv-s_5-57" value="" style="shape=partialRectangle;connectable=0;fillColor=none;top=0;left=0;bottom=0;right=0;editable=1;overflow=hidden;whiteSpace=wrap;html=1;" parent="_0kthYY2hkkztWUv-s_5-56" vertex="1">
          <mxGeometry width="30" height="30" as="geometry">
            <mxRectangle width="30" height="30" as="alternateBounds" />
          </mxGeometry>
        </mxCell>
        <mxCell id="_0kthYY2hkkztWUv-s_5-58" value="Apellidos (string)" style="shape=partialRectangle;connectable=0;fillColor=none;top=0;left=0;bottom=0;right=0;align=left;spacingLeft=6;overflow=hidden;whiteSpace=wrap;html=1;" parent="_0kthYY2hkkztWUv-s_5-56" vertex="1">
          <mxGeometry x="30" width="150" height="30" as="geometry">
            <mxRectangle width="150" height="30" as="alternateBounds" />
          </mxGeometry>
        </mxCell>
        <mxCell id="_0kthYY2hkkztWUv-s_5-59" value="" style="shape=tableRow;horizontal=0;startSize=0;swimlaneHead=0;swimlaneBody=0;fillColor=none;collapsible=0;dropTarget=0;points=[[0,0.5],[1,0.5]];portConstraint=eastwest;top=0;left=0;right=0;bottom=0;" parent="_0kthYY2hkkztWUv-s_5-49" vertex="1">
          <mxGeometry y="120" width="180" height="30" as="geometry" />
        </mxCell>
        <mxCell id="_0kthYY2hkkztWUv-s_5-60" value="" style="shape=partialRectangle;connectable=0;fillColor=none;top=0;left=0;bottom=0;right=0;editable=1;overflow=hidden;whiteSpace=wrap;html=1;" parent="_0kthYY2hkkztWUv-s_5-59" vertex="1">
          <mxGeometry width="30" height="30" as="geometry">
            <mxRectangle width="30" height="30" as="alternateBounds" />
          </mxGeometry>
        </mxCell>
        <mxCell id="_0kthYY2hkkztWUv-s_5-61" value="DNI (int)" style="shape=partialRectangle;connectable=0;fillColor=none;top=0;left=0;bottom=0;right=0;align=left;spacingLeft=6;overflow=hidden;whiteSpace=wrap;html=1;" parent="_0kthYY2hkkztWUv-s_5-59" vertex="1">
          <mxGeometry x="30" width="150" height="30" as="geometry">
            <mxRectangle width="150" height="30" as="alternateBounds" />
          </mxGeometry>
        </mxCell>
        <mxCell id="_0kthYY2hkkztWUv-s_5-97" value="" style="shape=tableRow;horizontal=0;startSize=0;swimlaneHead=0;swimlaneBody=0;fillColor=none;collapsible=0;dropTarget=0;points=[[0,0.5],[1,0.5]];portConstraint=eastwest;top=0;left=0;right=0;bottom=0;" parent="_0kthYY2hkkztWUv-s_5-49" vertex="1">
          <mxGeometry y="150" width="180" height="30" as="geometry" />
        </mxCell>
        <mxCell id="_0kthYY2hkkztWUv-s_5-98" value="" style="shape=partialRectangle;connectable=0;fillColor=none;top=0;left=0;bottom=0;right=0;editable=1;overflow=hidden;whiteSpace=wrap;html=1;" parent="_0kthYY2hkkztWUv-s_5-97" vertex="1">
          <mxGeometry width="30" height="30" as="geometry">
            <mxRectangle width="30" height="30" as="alternateBounds" />
          </mxGeometry>
        </mxCell>
        <mxCell id="_0kthYY2hkkztWUv-s_5-99" value="Materia (string)" style="shape=partialRectangle;connectable=0;fillColor=none;top=0;left=0;bottom=0;right=0;align=left;spacingLeft=6;overflow=hidden;whiteSpace=wrap;html=1;" parent="_0kthYY2hkkztWUv-s_5-97" vertex="1">
          <mxGeometry x="30" width="150" height="30" as="geometry">
            <mxRectangle width="150" height="30" as="alternateBounds" />
          </mxGeometry>
        </mxCell>
        <mxCell id="2o7agqwWr6afrbePRTP4-23" value="" style="shape=tableRow;horizontal=0;startSize=0;swimlaneHead=0;swimlaneBody=0;fillColor=none;collapsible=0;dropTarget=0;points=[[0,0.5],[1,0.5]];portConstraint=eastwest;top=0;left=0;right=0;bottom=0;" parent="_0kthYY2hkkztWUv-s_5-49" vertex="1">
          <mxGeometry y="180" width="180" height="30" as="geometry" />
        </mxCell>
        <mxCell id="2o7agqwWr6afrbePRTP4-24" value="" style="shape=partialRectangle;connectable=0;fillColor=none;top=0;left=0;bottom=0;right=0;editable=1;overflow=hidden;whiteSpace=wrap;html=1;" parent="2o7agqwWr6afrbePRTP4-23" vertex="1">
          <mxGeometry width="30" height="30" as="geometry">
            <mxRectangle width="30" height="30" as="alternateBounds" />
          </mxGeometry>
        </mxCell>
        <mxCell id="2o7agqwWr6afrbePRTP4-25" value="Contraseña (varchar)" style="shape=partialRectangle;connectable=0;fillColor=none;top=0;left=0;bottom=0;right=0;align=left;spacingLeft=6;overflow=hidden;whiteSpace=wrap;html=1;" parent="2o7agqwWr6afrbePRTP4-23" vertex="1">
          <mxGeometry x="30" width="150" height="30" as="geometry">
            <mxRectangle width="150" height="30" as="alternateBounds" />
          </mxGeometry>
        </mxCell>
        <mxCell id="_0kthYY2hkkztWUv-s_5-106" value="Libros" style="shape=table;startSize=30;container=1;collapsible=1;childLayout=tableLayout;fixedRows=1;rowLines=0;fontStyle=1;align=center;resizeLast=1;html=1;" parent="1" vertex="1">
          <mxGeometry x="921" y="590" width="180" height="300" as="geometry" />
        </mxCell>
        <mxCell id="_0kthYY2hkkztWUv-s_5-107" value="" style="shape=tableRow;horizontal=0;startSize=0;swimlaneHead=0;swimlaneBody=0;fillColor=none;collapsible=0;dropTarget=0;points=[[0,0.5],[1,0.5]];portConstraint=eastwest;top=0;left=0;right=0;bottom=1;" parent="_0kthYY2hkkztWUv-s_5-106" vertex="1">
          <mxGeometry y="30" width="180" height="30" as="geometry" />
        </mxCell>
        <mxCell id="_0kthYY2hkkztWUv-s_5-108" value="PK" style="shape=partialRectangle;connectable=0;fillColor=none;top=0;left=0;bottom=0;right=0;fontStyle=1;overflow=hidden;whiteSpace=wrap;html=1;" parent="_0kthYY2hkkztWUv-s_5-107" vertex="1">
          <mxGeometry width="30" height="30" as="geometry">
            <mxRectangle width="30" height="30" as="alternateBounds" />
          </mxGeometry>
        </mxCell>
        <mxCell id="_0kthYY2hkkztWUv-s_5-109" value="Id_libro (int)" style="shape=partialRectangle;connectable=0;fillColor=none;top=0;left=0;bottom=0;right=0;align=left;spacingLeft=6;fontStyle=5;overflow=hidden;whiteSpace=wrap;html=1;" parent="_0kthYY2hkkztWUv-s_5-107" vertex="1">
          <mxGeometry x="30" width="150" height="30" as="geometry">
            <mxRectangle width="150" height="30" as="alternateBounds" />
          </mxGeometry>
        </mxCell>
        <mxCell id="_0kthYY2hkkztWUv-s_5-110" value="" style="shape=tableRow;horizontal=0;startSize=0;swimlaneHead=0;swimlaneBody=0;fillColor=none;collapsible=0;dropTarget=0;points=[[0,0.5],[1,0.5]];portConstraint=eastwest;top=0;left=0;right=0;bottom=0;" parent="_0kthYY2hkkztWUv-s_5-106" vertex="1">
          <mxGeometry y="60" width="180" height="30" as="geometry" />
        </mxCell>
        <mxCell id="_0kthYY2hkkztWUv-s_5-111" value="" style="shape=partialRectangle;connectable=0;fillColor=none;top=0;left=0;bottom=0;right=0;editable=1;overflow=hidden;whiteSpace=wrap;html=1;" parent="_0kthYY2hkkztWUv-s_5-110" vertex="1">
          <mxGeometry width="30" height="30" as="geometry">
            <mxRectangle width="30" height="30" as="alternateBounds" />
          </mxGeometry>
        </mxCell>
        <mxCell id="_0kthYY2hkkztWUv-s_5-112" value="Nombre (string)" style="shape=partialRectangle;connectable=0;fillColor=none;top=0;left=0;bottom=0;right=0;align=left;spacingLeft=6;overflow=hidden;whiteSpace=wrap;html=1;" parent="_0kthYY2hkkztWUv-s_5-110" vertex="1">
          <mxGeometry x="30" width="150" height="30" as="geometry">
            <mxRectangle width="150" height="30" as="alternateBounds" />
          </mxGeometry>
        </mxCell>
        <mxCell id="_0kthYY2hkkztWUv-s_5-113" value="" style="shape=tableRow;horizontal=0;startSize=0;swimlaneHead=0;swimlaneBody=0;fillColor=none;collapsible=0;dropTarget=0;points=[[0,0.5],[1,0.5]];portConstraint=eastwest;top=0;left=0;right=0;bottom=0;" parent="_0kthYY2hkkztWUv-s_5-106" vertex="1">
          <mxGeometry y="90" width="180" height="30" as="geometry" />
        </mxCell>
        <mxCell id="_0kthYY2hkkztWUv-s_5-114" value="" style="shape=partialRectangle;connectable=0;fillColor=none;top=0;left=0;bottom=0;right=0;editable=1;overflow=hidden;whiteSpace=wrap;html=1;" parent="_0kthYY2hkkztWUv-s_5-113" vertex="1">
          <mxGeometry width="30" height="30" as="geometry">
            <mxRectangle width="30" height="30" as="alternateBounds" />
          </mxGeometry>
        </mxCell>
        <mxCell id="_0kthYY2hkkztWUv-s_5-115" value="Autor (string)" style="shape=partialRectangle;connectable=0;fillColor=none;top=0;left=0;bottom=0;right=0;align=left;spacingLeft=6;overflow=hidden;whiteSpace=wrap;html=1;" parent="_0kthYY2hkkztWUv-s_5-113" vertex="1">
          <mxGeometry x="30" width="150" height="30" as="geometry">
            <mxRectangle width="150" height="30" as="alternateBounds" />
          </mxGeometry>
        </mxCell>
        <mxCell id="_0kthYY2hkkztWUv-s_5-116" value="" style="shape=tableRow;horizontal=0;startSize=0;swimlaneHead=0;swimlaneBody=0;fillColor=none;collapsible=0;dropTarget=0;points=[[0,0.5],[1,0.5]];portConstraint=eastwest;top=0;left=0;right=0;bottom=0;" parent="_0kthYY2hkkztWUv-s_5-106" vertex="1">
          <mxGeometry y="120" width="180" height="30" as="geometry" />
        </mxCell>
        <mxCell id="_0kthYY2hkkztWUv-s_5-117" value="" style="shape=partialRectangle;connectable=0;fillColor=none;top=0;left=0;bottom=0;right=0;editable=1;overflow=hidden;whiteSpace=wrap;html=1;" parent="_0kthYY2hkkztWUv-s_5-116" vertex="1">
          <mxGeometry width="30" height="30" as="geometry">
            <mxRectangle width="30" height="30" as="alternateBounds" />
          </mxGeometry>
        </mxCell>
        <mxCell id="_0kthYY2hkkztWUv-s_5-118" value="Categoria (string)" style="shape=partialRectangle;connectable=0;fillColor=none;top=0;left=0;bottom=0;right=0;align=left;spacingLeft=6;overflow=hidden;whiteSpace=wrap;html=1;" parent="_0kthYY2hkkztWUv-s_5-116" vertex="1">
          <mxGeometry x="30" width="150" height="30" as="geometry">
            <mxRectangle width="150" height="30" as="alternateBounds" />
          </mxGeometry>
        </mxCell>
        <mxCell id="_0kthYY2hkkztWUv-s_5-176" value="" style="shape=tableRow;horizontal=0;startSize=0;swimlaneHead=0;swimlaneBody=0;fillColor=none;collapsible=0;dropTarget=0;points=[[0,0.5],[1,0.5]];portConstraint=eastwest;top=0;left=0;right=0;bottom=0;" parent="_0kthYY2hkkztWUv-s_5-106" vertex="1">
          <mxGeometry y="150" width="180" height="30" as="geometry" />
        </mxCell>
        <mxCell id="_0kthYY2hkkztWUv-s_5-177" value="" style="shape=partialRectangle;connectable=0;fillColor=none;top=0;left=0;bottom=0;right=0;editable=1;overflow=hidden;whiteSpace=wrap;html=1;" parent="_0kthYY2hkkztWUv-s_5-176" vertex="1">
          <mxGeometry width="30" height="30" as="geometry">
            <mxRectangle width="30" height="30" as="alternateBounds" />
          </mxGeometry>
        </mxCell>
        <mxCell id="_0kthYY2hkkztWUv-s_5-178" value="Manual (varchar)" style="shape=partialRectangle;connectable=0;fillColor=none;top=0;left=0;bottom=0;right=0;align=left;spacingLeft=6;overflow=hidden;whiteSpace=wrap;html=1;" parent="_0kthYY2hkkztWUv-s_5-176" vertex="1">
          <mxGeometry x="30" width="150" height="30" as="geometry">
            <mxRectangle width="150" height="30" as="alternateBounds" />
          </mxGeometry>
        </mxCell>
        <mxCell id="_0kthYY2hkkztWUv-s_5-201" value="" style="shape=tableRow;horizontal=0;startSize=0;swimlaneHead=0;swimlaneBody=0;fillColor=none;collapsible=0;dropTarget=0;points=[[0,0.5],[1,0.5]];portConstraint=eastwest;top=0;left=0;right=0;bottom=0;" parent="_0kthYY2hkkztWUv-s_5-106" vertex="1">
          <mxGeometry y="180" width="180" height="30" as="geometry" />
        </mxCell>
        <mxCell id="_0kthYY2hkkztWUv-s_5-202" value="" style="shape=partialRectangle;connectable=0;fillColor=none;top=0;left=0;bottom=0;right=0;editable=1;overflow=hidden;whiteSpace=wrap;html=1;" parent="_0kthYY2hkkztWUv-s_5-201" vertex="1">
          <mxGeometry width="30" height="30" as="geometry">
            <mxRectangle width="30" height="30" as="alternateBounds" />
          </mxGeometry>
        </mxCell>
        <mxCell id="_0kthYY2hkkztWUv-s_5-203" value="Literario (string)" style="shape=partialRectangle;connectable=0;fillColor=none;top=0;left=0;bottom=0;right=0;align=left;spacingLeft=6;overflow=hidden;whiteSpace=wrap;html=1;" parent="_0kthYY2hkkztWUv-s_5-201" vertex="1">
          <mxGeometry x="30" width="150" height="30" as="geometry">
            <mxRectangle width="150" height="30" as="alternateBounds" />
          </mxGeometry>
        </mxCell>
        <mxCell id="_0kthYY2hkkztWUv-s_5-119" value="" style="shape=tableRow;horizontal=0;startSize=0;swimlaneHead=0;swimlaneBody=0;fillColor=none;collapsible=0;dropTarget=0;points=[[0,0.5],[1,0.5]];portConstraint=eastwest;top=0;left=0;right=0;bottom=0;" parent="_0kthYY2hkkztWUv-s_5-106" vertex="1">
          <mxGeometry y="210" width="180" height="30" as="geometry" />
        </mxCell>
        <mxCell id="_0kthYY2hkkztWUv-s_5-120" value="" style="shape=partialRectangle;connectable=0;fillColor=none;top=0;left=0;bottom=0;right=0;editable=1;overflow=hidden;whiteSpace=wrap;html=1;" parent="_0kthYY2hkkztWUv-s_5-119" vertex="1">
          <mxGeometry width="30" height="30" as="geometry">
            <mxRectangle width="30" height="30" as="alternateBounds" />
          </mxGeometry>
        </mxCell>
        <mxCell id="_0kthYY2hkkztWUv-s_5-121" value="Materias (string)" style="shape=partialRectangle;connectable=0;fillColor=none;top=0;left=0;bottom=0;right=0;align=left;spacingLeft=6;overflow=hidden;whiteSpace=wrap;html=1;" parent="_0kthYY2hkkztWUv-s_5-119" vertex="1">
          <mxGeometry x="30" width="150" height="30" as="geometry">
            <mxRectangle width="150" height="30" as="alternateBounds" />
          </mxGeometry>
        </mxCell>
        <mxCell id="_9oub68Y3OVNiQBQ8qPL-1" value="" style="shape=tableRow;horizontal=0;startSize=0;swimlaneHead=0;swimlaneBody=0;fillColor=none;collapsible=0;dropTarget=0;points=[[0,0.5],[1,0.5]];portConstraint=eastwest;top=0;left=0;right=0;bottom=0;" parent="_0kthYY2hkkztWUv-s_5-106" vertex="1">
          <mxGeometry y="240" width="180" height="30" as="geometry" />
        </mxCell>
        <mxCell id="_9oub68Y3OVNiQBQ8qPL-2" value="&lt;b&gt;FK&lt;/b&gt;" style="shape=partialRectangle;connectable=0;fillColor=none;top=0;left=0;bottom=0;right=0;editable=1;overflow=hidden;whiteSpace=wrap;html=1;" parent="_9oub68Y3OVNiQBQ8qPL-1" vertex="1">
          <mxGeometry width="30" height="30" as="geometry">
            <mxRectangle width="30" height="30" as="alternateBounds" />
          </mxGeometry>
        </mxCell>
        <mxCell id="_9oub68Y3OVNiQBQ8qPL-3" value="&lt;b&gt;Id_materias (int)&lt;/b&gt;" style="shape=partialRectangle;connectable=0;fillColor=none;top=0;left=0;bottom=0;right=0;align=left;spacingLeft=6;overflow=hidden;whiteSpace=wrap;html=1;" parent="_9oub68Y3OVNiQBQ8qPL-1" vertex="1">
          <mxGeometry x="30" width="150" height="30" as="geometry">
            <mxRectangle width="150" height="30" as="alternateBounds" />
          </mxGeometry>
        </mxCell>
        <mxCell id="xIYGb5opCHgIpHhlC8T2-32" value="" style="shape=tableRow;horizontal=0;startSize=0;swimlaneHead=0;swimlaneBody=0;fillColor=none;collapsible=0;dropTarget=0;points=[[0,0.5],[1,0.5]];portConstraint=eastwest;top=0;left=0;right=0;bottom=0;" parent="_0kthYY2hkkztWUv-s_5-106" vertex="1">
          <mxGeometry y="270" width="180" height="30" as="geometry" />
        </mxCell>
        <mxCell id="xIYGb5opCHgIpHhlC8T2-33" value="&lt;b&gt;FK&lt;/b&gt;" style="shape=partialRectangle;connectable=0;fillColor=none;top=0;left=0;bottom=0;right=0;editable=1;overflow=hidden;whiteSpace=wrap;html=1;" parent="xIYGb5opCHgIpHhlC8T2-32" vertex="1">
          <mxGeometry width="30" height="30" as="geometry">
            <mxRectangle width="30" height="30" as="alternateBounds" />
          </mxGeometry>
        </mxCell>
        <mxCell id="xIYGb5opCHgIpHhlC8T2-34" value="&lt;b&gt;Id_profesor (int)&lt;/b&gt;" style="shape=partialRectangle;connectable=0;fillColor=none;top=0;left=0;bottom=0;right=0;align=left;spacingLeft=6;overflow=hidden;whiteSpace=wrap;html=1;" parent="xIYGb5opCHgIpHhlC8T2-32" vertex="1">
          <mxGeometry x="30" width="150" height="30" as="geometry">
            <mxRectangle width="150" height="30" as="alternateBounds" />
          </mxGeometry>
        </mxCell>
        <mxCell id="_0kthYY2hkkztWUv-s_5-122" value="Cursos" style="shape=table;startSize=30;container=1;collapsible=1;childLayout=tableLayout;fixedRows=1;rowLines=0;fontStyle=1;align=center;resizeLast=1;html=1;" parent="1" vertex="1">
          <mxGeometry x="600" y="440" width="180" height="90" as="geometry" />
        </mxCell>
        <mxCell id="5zmhcXCEQZ_9jmb5cCAh-3" value="" style="shape=tableRow;horizontal=0;startSize=0;swimlaneHead=0;swimlaneBody=0;fillColor=none;collapsible=0;dropTarget=0;points=[[0,0.5],[1,0.5]];portConstraint=eastwest;top=0;left=0;right=0;bottom=1;" vertex="1" parent="_0kthYY2hkkztWUv-s_5-122">
          <mxGeometry y="30" width="180" height="30" as="geometry" />
        </mxCell>
        <mxCell id="5zmhcXCEQZ_9jmb5cCAh-4" value="PK" style="shape=partialRectangle;connectable=0;fillColor=none;top=0;left=0;bottom=0;right=0;fontStyle=1;overflow=hidden;whiteSpace=wrap;html=1;" vertex="1" parent="5zmhcXCEQZ_9jmb5cCAh-3">
          <mxGeometry width="30" height="30" as="geometry">
            <mxRectangle width="30" height="30" as="alternateBounds" />
          </mxGeometry>
        </mxCell>
        <mxCell id="5zmhcXCEQZ_9jmb5cCAh-5" value="Id_cursos (int)" style="shape=partialRectangle;connectable=0;fillColor=none;top=0;left=0;bottom=0;right=0;align=left;spacingLeft=6;fontStyle=5;overflow=hidden;whiteSpace=wrap;html=1;" vertex="1" parent="5zmhcXCEQZ_9jmb5cCAh-3">
          <mxGeometry x="30" width="150" height="30" as="geometry">
            <mxRectangle width="150" height="30" as="alternateBounds" />
          </mxGeometry>
        </mxCell>
        <mxCell id="2o7agqwWr6afrbePRTP4-26" value="" style="shape=tableRow;horizontal=0;startSize=0;swimlaneHead=0;swimlaneBody=0;fillColor=none;collapsible=0;dropTarget=0;points=[[0,0.5],[1,0.5]];portConstraint=eastwest;top=0;left=0;right=0;bottom=0;" parent="_0kthYY2hkkztWUv-s_5-122" vertex="1">
          <mxGeometry y="60" width="180" height="30" as="geometry" />
        </mxCell>
        <mxCell id="2o7agqwWr6afrbePRTP4-27" value="&lt;b&gt;FK&lt;/b&gt;" style="shape=partialRectangle;connectable=0;fillColor=none;top=0;left=0;bottom=0;right=0;editable=1;overflow=hidden;whiteSpace=wrap;html=1;" parent="2o7agqwWr6afrbePRTP4-26" vertex="1">
          <mxGeometry width="30" height="30" as="geometry">
            <mxRectangle width="30" height="30" as="alternateBounds" />
          </mxGeometry>
        </mxCell>
        <mxCell id="2o7agqwWr6afrbePRTP4-28" value="&lt;b&gt;Id_Materias(int)&lt;/b&gt;" style="shape=partialRectangle;connectable=0;fillColor=none;top=0;left=0;bottom=0;right=0;align=left;spacingLeft=6;overflow=hidden;whiteSpace=wrap;html=1;" parent="2o7agqwWr6afrbePRTP4-26" vertex="1">
          <mxGeometry x="30" width="150" height="30" as="geometry">
            <mxRectangle width="150" height="30" as="alternateBounds" />
          </mxGeometry>
        </mxCell>
        <mxCell id="_0kthYY2hkkztWUv-s_5-157" value="Materias" style="shape=table;startSize=30;container=1;collapsible=1;childLayout=tableLayout;fixedRows=1;rowLines=0;fontStyle=1;align=center;resizeLast=1;html=1;" parent="1" vertex="1">
          <mxGeometry x="600" y="650" width="180" height="120" as="geometry" />
        </mxCell>
        <mxCell id="_0kthYY2hkkztWUv-s_5-158" value="" style="shape=tableRow;horizontal=0;startSize=0;swimlaneHead=0;swimlaneBody=0;fillColor=none;collapsible=0;dropTarget=0;points=[[0,0.5],[1,0.5]];portConstraint=eastwest;top=0;left=0;right=0;bottom=1;" parent="_0kthYY2hkkztWUv-s_5-157" vertex="1">
          <mxGeometry y="30" width="180" height="30" as="geometry" />
        </mxCell>
        <mxCell id="_0kthYY2hkkztWUv-s_5-159" value="PK" style="shape=partialRectangle;connectable=0;fillColor=none;top=0;left=0;bottom=0;right=0;fontStyle=1;overflow=hidden;whiteSpace=wrap;html=1;" parent="_0kthYY2hkkztWUv-s_5-158" vertex="1">
          <mxGeometry width="30" height="30" as="geometry">
            <mxRectangle width="30" height="30" as="alternateBounds" />
          </mxGeometry>
        </mxCell>
        <mxCell id="_0kthYY2hkkztWUv-s_5-160" value="Id_materias (int)" style="shape=partialRectangle;connectable=0;fillColor=none;top=0;left=0;bottom=0;right=0;align=left;spacingLeft=6;fontStyle=5;overflow=hidden;whiteSpace=wrap;html=1;" parent="_0kthYY2hkkztWUv-s_5-158" vertex="1">
          <mxGeometry x="30" width="150" height="30" as="geometry">
            <mxRectangle width="150" height="30" as="alternateBounds" />
          </mxGeometry>
        </mxCell>
        <mxCell id="_0kthYY2hkkztWUv-s_5-161" value="" style="shape=tableRow;horizontal=0;startSize=0;swimlaneHead=0;swimlaneBody=0;fillColor=none;collapsible=0;dropTarget=0;points=[[0,0.5],[1,0.5]];portConstraint=eastwest;top=0;left=0;right=0;bottom=0;" parent="_0kthYY2hkkztWUv-s_5-157" vertex="1">
          <mxGeometry y="60" width="180" height="30" as="geometry" />
        </mxCell>
        <mxCell id="_0kthYY2hkkztWUv-s_5-162" value="" style="shape=partialRectangle;connectable=0;fillColor=none;top=0;left=0;bottom=0;right=0;editable=1;overflow=hidden;whiteSpace=wrap;html=1;" parent="_0kthYY2hkkztWUv-s_5-161" vertex="1">
          <mxGeometry width="30" height="30" as="geometry">
            <mxRectangle width="30" height="30" as="alternateBounds" />
          </mxGeometry>
        </mxCell>
        <mxCell id="_0kthYY2hkkztWUv-s_5-163" value="Nombre (string)" style="shape=partialRectangle;connectable=0;fillColor=none;top=0;left=0;bottom=0;right=0;align=left;spacingLeft=6;overflow=hidden;whiteSpace=wrap;html=1;" parent="_0kthYY2hkkztWUv-s_5-161" vertex="1">
          <mxGeometry x="30" width="150" height="30" as="geometry">
            <mxRectangle width="150" height="30" as="alternateBounds" />
          </mxGeometry>
        </mxCell>
        <mxCell id="_0kthYY2hkkztWUv-s_5-164" value="" style="shape=tableRow;horizontal=0;startSize=0;swimlaneHead=0;swimlaneBody=0;fillColor=none;collapsible=0;dropTarget=0;points=[[0,0.5],[1,0.5]];portConstraint=eastwest;top=0;left=0;right=0;bottom=0;" parent="_0kthYY2hkkztWUv-s_5-157" vertex="1">
          <mxGeometry y="90" width="180" height="30" as="geometry" />
        </mxCell>
        <mxCell id="_0kthYY2hkkztWUv-s_5-165" value="" style="shape=partialRectangle;connectable=0;fillColor=none;top=0;left=0;bottom=0;right=0;editable=1;overflow=hidden;whiteSpace=wrap;html=1;" parent="_0kthYY2hkkztWUv-s_5-164" vertex="1">
          <mxGeometry width="30" height="30" as="geometry">
            <mxRectangle width="30" height="30" as="alternateBounds" />
          </mxGeometry>
        </mxCell>
        <mxCell id="_0kthYY2hkkztWUv-s_5-166" value="Cursos (string)&lt;span style=&quot;white-space: pre;&quot;&gt; &lt;/span&gt;" style="shape=partialRectangle;connectable=0;fillColor=none;top=0;left=0;bottom=0;right=0;align=left;spacingLeft=6;overflow=hidden;whiteSpace=wrap;html=1;" parent="_0kthYY2hkkztWUv-s_5-164" vertex="1">
          <mxGeometry x="30" width="150" height="30" as="geometry">
            <mxRectangle width="150" height="30" as="alternateBounds" />
          </mxGeometry>
        </mxCell>
        <mxCell id="2o7agqwWr6afrbePRTP4-30" style="edgeStyle=orthogonalEdgeStyle;rounded=0;orthogonalLoop=1;jettySize=auto;html=1;entryX=1;entryY=0.5;entryDx=0;entryDy=0;exitX=0;exitY=0.5;exitDx=0;exitDy=0;" parent="1" source="2o7agqwWr6afrbePRTP4-26" target="_0kthYY2hkkztWUv-s_5-158" edge="1">
          <mxGeometry relative="1" as="geometry">
            <mxPoint x="670" y="420" as="sourcePoint" />
            <mxPoint x="500" y="630" as="targetPoint" />
            <Array as="points">
              <mxPoint x="560" y="515" />
              <mxPoint x="560" y="600" />
              <mxPoint x="820" y="600" />
              <mxPoint x="820" y="695" />
            </Array>
          </mxGeometry>
        </mxCell>
        <mxCell id="fBQj3IFD5WuygKD9F03k-5" style="edgeStyle=orthogonalEdgeStyle;rounded=0;orthogonalLoop=1;jettySize=auto;html=1;entryX=1;entryY=0.5;entryDx=0;entryDy=0;" parent="1" source="_0kthYY2hkkztWUv-s_5-50" target="xIYGb5opCHgIpHhlC8T2-32" edge="1">
          <mxGeometry relative="1" as="geometry">
            <Array as="points">
              <mxPoint x="1140" y="365" />
              <mxPoint x="1140" y="875" />
            </Array>
          </mxGeometry>
        </mxCell>
        <mxCell id="1dk0RhrkuewHvC_GARyo-2" style="edgeStyle=orthogonalEdgeStyle;rounded=0;orthogonalLoop=1;jettySize=auto;html=1;entryX=1;entryY=0.5;entryDx=0;entryDy=0;exitX=0;exitY=0.5;exitDx=0;exitDy=0;" parent="1" source="5zmhcXCEQZ_9jmb5cCAh-3" target="_0kthYY2hkkztWUv-s_5-173" edge="1">
          <mxGeometry relative="1" as="geometry">
            <Array as="points" />
          </mxGeometry>
        </mxCell>
        <mxCell id="1dk0RhrkuewHvC_GARyo-4" value="Nom_cursos" style="shape=table;startSize=30;container=1;collapsible=1;childLayout=tableLayout;fixedRows=1;rowLines=0;fontStyle=1;align=center;resizeLast=1;html=1;" parent="1" vertex="1">
          <mxGeometry x="600" y="230" width="180" height="120" as="geometry" />
        </mxCell>
        <mxCell id="1dk0RhrkuewHvC_GARyo-8" value="" style="shape=tableRow;horizontal=0;startSize=0;swimlaneHead=0;swimlaneBody=0;fillColor=none;collapsible=0;dropTarget=0;points=[[0,0.5],[1,0.5]];portConstraint=eastwest;top=0;left=0;right=0;bottom=0;" parent="1dk0RhrkuewHvC_GARyo-4" vertex="1">
          <mxGeometry y="30" width="180" height="30" as="geometry" />
        </mxCell>
        <mxCell id="1dk0RhrkuewHvC_GARyo-9" value="PK" style="shape=partialRectangle;connectable=0;fillColor=none;top=0;left=0;bottom=0;right=0;editable=1;overflow=hidden;whiteSpace=wrap;html=1;" parent="1dk0RhrkuewHvC_GARyo-8" vertex="1">
          <mxGeometry width="30" height="30" as="geometry">
            <mxRectangle width="30" height="30" as="alternateBounds" />
          </mxGeometry>
        </mxCell>
        <mxCell id="1dk0RhrkuewHvC_GARyo-10" value="&lt;b&gt;&lt;u&gt;nom_cursos (int)&lt;/u&gt;&lt;/b&gt;" style="shape=partialRectangle;connectable=0;fillColor=none;top=0;left=0;bottom=0;right=0;align=left;spacingLeft=6;overflow=hidden;whiteSpace=wrap;html=1;" parent="1dk0RhrkuewHvC_GARyo-8" vertex="1">
          <mxGeometry x="30" width="150" height="30" as="geometry">
            <mxRectangle width="150" height="30" as="alternateBounds" />
          </mxGeometry>
        </mxCell>
        <mxCell id="1dk0RhrkuewHvC_GARyo-24" value="" style="shape=tableRow;horizontal=0;startSize=0;swimlaneHead=0;swimlaneBody=0;fillColor=none;collapsible=0;dropTarget=0;points=[[0,0.5],[1,0.5]];portConstraint=eastwest;top=0;left=0;right=0;bottom=0;" parent="1dk0RhrkuewHvC_GARyo-4" vertex="1">
          <mxGeometry y="60" width="180" height="30" as="geometry" />
        </mxCell>
        <mxCell id="1dk0RhrkuewHvC_GARyo-25" value="" style="shape=partialRectangle;connectable=0;fillColor=none;top=0;left=0;bottom=0;right=0;editable=1;overflow=hidden;whiteSpace=wrap;html=1;" parent="1dk0RhrkuewHvC_GARyo-24" vertex="1">
          <mxGeometry width="30" height="30" as="geometry">
            <mxRectangle width="30" height="30" as="alternateBounds" />
          </mxGeometry>
        </mxCell>
        <mxCell id="1dk0RhrkuewHvC_GARyo-26" value="&lt;div&gt;Nombre (string)&lt;/div&gt;" style="shape=partialRectangle;connectable=0;fillColor=none;top=0;left=0;bottom=0;right=0;align=left;spacingLeft=6;overflow=hidden;whiteSpace=wrap;html=1;" parent="1dk0RhrkuewHvC_GARyo-24" vertex="1">
          <mxGeometry x="30" width="150" height="30" as="geometry">
            <mxRectangle width="150" height="30" as="alternateBounds" />
          </mxGeometry>
        </mxCell>
        <mxCell id="1dk0RhrkuewHvC_GARyo-5" value="" style="shape=tableRow;horizontal=0;startSize=0;swimlaneHead=0;swimlaneBody=0;fillColor=none;collapsible=0;dropTarget=0;points=[[0,0.5],[1,0.5]];portConstraint=eastwest;top=0;left=0;right=0;bottom=1;" parent="1dk0RhrkuewHvC_GARyo-4" vertex="1">
          <mxGeometry y="90" width="180" height="30" as="geometry" />
        </mxCell>
        <mxCell id="1dk0RhrkuewHvC_GARyo-6" value="FK" style="shape=partialRectangle;connectable=0;fillColor=none;top=0;left=0;bottom=0;right=0;fontStyle=1;overflow=hidden;whiteSpace=wrap;html=1;" parent="1dk0RhrkuewHvC_GARyo-5" vertex="1">
          <mxGeometry width="30" height="30" as="geometry">
            <mxRectangle width="30" height="30" as="alternateBounds" />
          </mxGeometry>
        </mxCell>
        <mxCell id="1dk0RhrkuewHvC_GARyo-7" value="Id_cursos (int)" style="shape=partialRectangle;connectable=0;fillColor=none;top=0;left=0;bottom=0;right=0;align=left;spacingLeft=6;fontStyle=5;overflow=hidden;whiteSpace=wrap;html=1;" parent="1dk0RhrkuewHvC_GARyo-5" vertex="1">
          <mxGeometry x="30" width="150" height="30" as="geometry">
            <mxRectangle width="150" height="30" as="alternateBounds" />
          </mxGeometry>
        </mxCell>
        <mxCell id="5zmhcXCEQZ_9jmb5cCAh-1" style="edgeStyle=orthogonalEdgeStyle;rounded=0;orthogonalLoop=1;jettySize=auto;html=1;entryX=1;entryY=0.5;entryDx=0;entryDy=0;" edge="1" parent="1" source="_9oub68Y3OVNiQBQ8qPL-1" target="_0kthYY2hkkztWUv-s_5-158">
          <mxGeometry relative="1" as="geometry" />
        </mxCell>
        <mxCell id="5zmhcXCEQZ_9jmb5cCAh-7" value="Nom_cursos" style="shape=table;startSize=30;container=1;collapsible=1;childLayout=tableLayout;fixedRows=1;rowLines=0;fontStyle=1;align=center;resizeLast=1;html=1;" vertex="1" parent="1">
          <mxGeometry x="827" y="130" width="180" height="90" as="geometry" />
        </mxCell>
        <mxCell id="5zmhcXCEQZ_9jmb5cCAh-14" value="" style="shape=tableRow;horizontal=0;startSize=0;swimlaneHead=0;swimlaneBody=0;fillColor=none;collapsible=0;dropTarget=0;points=[[0,0.5],[1,0.5]];portConstraint=eastwest;top=0;left=0;right=0;bottom=0;" vertex="1" parent="5zmhcXCEQZ_9jmb5cCAh-7">
          <mxGeometry y="30" width="180" height="30" as="geometry" />
        </mxCell>
        <mxCell id="5zmhcXCEQZ_9jmb5cCAh-15" value="&lt;span style=&quot;font-family: Helvetica; font-size: 12px; font-style: normal; font-variant-ligatures: normal; font-variant-caps: normal; font-weight: 700; letter-spacing: normal; text-align: center; text-indent: 0px; text-transform: none; word-spacing: 0px; -webkit-text-stroke-width: 0px; text-decoration-thickness: initial; text-decoration-style: initial; text-decoration-color: initial; float: none; display: inline !important;&quot;&gt;FK&lt;br&gt;&lt;/span&gt;" style="shape=partialRectangle;connectable=0;fillColor=none;top=0;left=0;bottom=0;right=0;editable=1;overflow=hidden;whiteSpace=wrap;html=1;" vertex="1" parent="5zmhcXCEQZ_9jmb5cCAh-14">
          <mxGeometry width="30" height="30" as="geometry">
            <mxRectangle width="30" height="30" as="alternateBounds" />
          </mxGeometry>
        </mxCell>
        <mxCell id="5zmhcXCEQZ_9jmb5cCAh-16" value="&lt;b&gt;&lt;u&gt;Id_profesores (string)&lt;/u&gt;&lt;/b&gt;" style="shape=partialRectangle;connectable=0;fillColor=none;top=0;left=0;bottom=0;right=0;align=left;spacingLeft=6;overflow=hidden;whiteSpace=wrap;html=1;" vertex="1" parent="5zmhcXCEQZ_9jmb5cCAh-14">
          <mxGeometry x="30" width="150" height="30" as="geometry">
            <mxRectangle width="150" height="30" as="alternateBounds" />
          </mxGeometry>
        </mxCell>
        <mxCell id="5zmhcXCEQZ_9jmb5cCAh-17" value="" style="shape=tableRow;horizontal=0;startSize=0;swimlaneHead=0;swimlaneBody=0;fillColor=none;collapsible=0;dropTarget=0;points=[[0,0.5],[1,0.5]];portConstraint=eastwest;top=0;left=0;right=0;bottom=1;" vertex="1" parent="5zmhcXCEQZ_9jmb5cCAh-7">
          <mxGeometry y="60" width="180" height="30" as="geometry" />
        </mxCell>
        <mxCell id="5zmhcXCEQZ_9jmb5cCAh-18" value="FK" style="shape=partialRectangle;connectable=0;fillColor=none;top=0;left=0;bottom=0;right=0;fontStyle=1;overflow=hidden;whiteSpace=wrap;html=1;" vertex="1" parent="5zmhcXCEQZ_9jmb5cCAh-17">
          <mxGeometry width="30" height="30" as="geometry">
            <mxRectangle width="30" height="30" as="alternateBounds" />
          </mxGeometry>
        </mxCell>
        <mxCell id="5zmhcXCEQZ_9jmb5cCAh-19" value="nom_cursos (int)" style="shape=partialRectangle;connectable=0;fillColor=none;top=0;left=0;bottom=0;right=0;align=left;spacingLeft=6;fontStyle=5;overflow=hidden;whiteSpace=wrap;html=1;" vertex="1" parent="5zmhcXCEQZ_9jmb5cCAh-17">
          <mxGeometry x="30" width="150" height="30" as="geometry">
            <mxRectangle width="150" height="30" as="alternateBounds" />
          </mxGeometry>
        </mxCell>
        <mxCell id="5zmhcXCEQZ_9jmb5cCAh-21" style="edgeStyle=orthogonalEdgeStyle;rounded=0;orthogonalLoop=1;jettySize=auto;html=1;" edge="1" parent="1" source="_0kthYY2hkkztWUv-s_5-50" target="5zmhcXCEQZ_9jmb5cCAh-14">
          <mxGeometry relative="1" as="geometry" />
        </mxCell>
        <mxCell id="5zmhcXCEQZ_9jmb5cCAh-22" style="edgeStyle=orthogonalEdgeStyle;rounded=0;orthogonalLoop=1;jettySize=auto;html=1;entryX=0;entryY=0.5;entryDx=0;entryDy=0;" edge="1" parent="1" source="1dk0RhrkuewHvC_GARyo-8" target="5zmhcXCEQZ_9jmb5cCAh-17">
          <mxGeometry relative="1" as="geometry" />
        </mxCell>
        <mxCell id="5zmhcXCEQZ_9jmb5cCAh-23" style="edgeStyle=orthogonalEdgeStyle;rounded=0;orthogonalLoop=1;jettySize=auto;html=1;entryX=0;entryY=0.5;entryDx=0;entryDy=0;" edge="1" parent="1" source="5zmhcXCEQZ_9jmb5cCAh-3" target="1dk0RhrkuewHvC_GARyo-5">
          <mxGeometry relative="1" as="geometry" />
        </mxCell>
      </root>
    </mxGraphModel>
  </diagram>
  <diagram id="ppljnQQBP76Acz_cap82" name="Modelo Entidad Relacion">
    <mxGraphModel dx="2261" dy="757" grid="1" gridSize="10" guides="1" tooltips="1" connect="1" arrows="1" fold="1" page="1" pageScale="1" pageWidth="827" pageHeight="1169" math="0" shadow="0">
      <root>
        <mxCell id="0" />
        <mxCell id="1" parent="0" />
        <mxCell id="lHIER-hWCcCnwrUCbrE2-1" value="" style="edgeStyle=orthogonalEdgeStyle;rounded=0;orthogonalLoop=1;jettySize=auto;html=1;" parent="1" source="lHIER-hWCcCnwrUCbrE2-2" target="lHIER-hWCcCnwrUCbrE2-37" edge="1">
          <mxGeometry relative="1" as="geometry" />
        </mxCell>
        <mxCell id="lHIER-hWCcCnwrUCbrE2-2" value="Alumnos" style="rounded=0;whiteSpace=wrap;html=1;" parent="1" vertex="1">
          <mxGeometry x="94" y="440" width="120" height="60" as="geometry" />
        </mxCell>
        <mxCell id="lHIER-hWCcCnwrUCbrE2-4" value="" style="edgeStyle=orthogonalEdgeStyle;rounded=0;orthogonalLoop=1;jettySize=auto;html=1;" parent="1" source="lHIER-hWCcCnwrUCbrE2-5" target="lHIER-hWCcCnwrUCbrE2-35" edge="1">
          <mxGeometry relative="1" as="geometry" />
        </mxCell>
        <mxCell id="H7JEpKfbMmZBw9DiaiyD-2" style="edgeStyle=orthogonalEdgeStyle;rounded=0;orthogonalLoop=1;jettySize=auto;html=1;entryX=0.5;entryY=0;entryDx=0;entryDy=0;" parent="1" source="lHIER-hWCcCnwrUCbrE2-5" target="H7JEpKfbMmZBw9DiaiyD-1" edge="1">
          <mxGeometry relative="1" as="geometry" />
        </mxCell>
        <mxCell id="lHIER-hWCcCnwrUCbrE2-5" value="Profesores" style="rounded=0;whiteSpace=wrap;html=1;" parent="1" vertex="1">
          <mxGeometry x="584" y="440" width="120" height="60" as="geometry" />
        </mxCell>
        <mxCell id="lHIER-hWCcCnwrUCbrE2-6" value="Libros" style="rounded=0;whiteSpace=wrap;html=1;" parent="1" vertex="1">
          <mxGeometry x="448.5" y="660" width="120" height="60" as="geometry" />
        </mxCell>
        <mxCell id="lHIER-hWCcCnwrUCbrE2-18" style="edgeStyle=orthogonalEdgeStyle;rounded=0;orthogonalLoop=1;jettySize=auto;html=1;entryX=0;entryY=0.5;entryDx=0;entryDy=0;" parent="1" source="lHIER-hWCcCnwrUCbrE2-19" target="lHIER-hWCcCnwrUCbrE2-2" edge="1">
          <mxGeometry relative="1" as="geometry">
            <Array as="points">
              <mxPoint x="-118" y="470" />
            </Array>
          </mxGeometry>
        </mxCell>
        <mxCell id="lHIER-hWCcCnwrUCbrE2-19" value="Id_alumnos" style="ellipse;whiteSpace=wrap;html=1;aspect=fixed;fillColor=#FF0000;" parent="1" vertex="1">
          <mxGeometry x="-150" y="350" width="64" height="64" as="geometry" />
        </mxCell>
        <mxCell id="lHIER-hWCcCnwrUCbrE2-20" style="edgeStyle=orthogonalEdgeStyle;rounded=0;orthogonalLoop=1;jettySize=auto;html=1;entryX=0;entryY=0.5;entryDx=0;entryDy=0;exitX=0.5;exitY=0;exitDx=0;exitDy=0;" parent="1" source="lHIER-hWCcCnwrUCbrE2-21" target="lHIER-hWCcCnwrUCbrE2-2" edge="1">
          <mxGeometry relative="1" as="geometry" />
        </mxCell>
        <mxCell id="lHIER-hWCcCnwrUCbrE2-21" value="Curso" style="ellipse;whiteSpace=wrap;html=1;aspect=fixed;" parent="1" vertex="1">
          <mxGeometry y="515" width="50" height="50" as="geometry" />
        </mxCell>
        <mxCell id="lHIER-hWCcCnwrUCbrE2-26" style="edgeStyle=orthogonalEdgeStyle;rounded=0;orthogonalLoop=1;jettySize=auto;html=1;entryX=1;entryY=0.5;entryDx=0;entryDy=0;" parent="1" source="lHIER-hWCcCnwrUCbrE2-27" target="lHIER-hWCcCnwrUCbrE2-5" edge="1">
          <mxGeometry relative="1" as="geometry">
            <Array as="points">
              <mxPoint x="870" y="420" />
              <mxPoint x="870" y="470" />
            </Array>
          </mxGeometry>
        </mxCell>
        <mxCell id="lHIER-hWCcCnwrUCbrE2-27" value="Nombre" style="ellipse;whiteSpace=wrap;html=1;aspect=fixed;" parent="1" vertex="1">
          <mxGeometry x="880" y="395" width="50" height="50" as="geometry" />
        </mxCell>
        <mxCell id="lHIER-hWCcCnwrUCbrE2-28" value="" style="edgeStyle=orthogonalEdgeStyle;rounded=0;orthogonalLoop=1;jettySize=auto;html=1;" parent="1" source="lHIER-hWCcCnwrUCbrE2-29" target="lHIER-hWCcCnwrUCbrE2-6" edge="1">
          <mxGeometry relative="1" as="geometry">
            <Array as="points">
              <mxPoint x="554.5" y="760" />
            </Array>
          </mxGeometry>
        </mxCell>
        <mxCell id="lHIER-hWCcCnwrUCbrE2-29" value="Nombre" style="ellipse;whiteSpace=wrap;html=1;aspect=fixed;" parent="1" vertex="1">
          <mxGeometry x="588.5" y="700" width="50" height="50" as="geometry" />
        </mxCell>
        <mxCell id="lHIER-hWCcCnwrUCbrE2-30" value="" style="edgeStyle=orthogonalEdgeStyle;rounded=0;orthogonalLoop=1;jettySize=auto;html=1;" parent="1" source="lHIER-hWCcCnwrUCbrE2-31" target="lHIER-hWCcCnwrUCbrE2-6" edge="1">
          <mxGeometry relative="1" as="geometry">
            <Array as="points">
              <mxPoint x="464.5" y="760" />
            </Array>
          </mxGeometry>
        </mxCell>
        <mxCell id="lHIER-hWCcCnwrUCbrE2-31" value="Id_libro" style="ellipse;whiteSpace=wrap;html=1;aspect=fixed;fillColor=#FF0000;" parent="1" vertex="1">
          <mxGeometry x="393.5" y="738" width="44" height="44" as="geometry" />
        </mxCell>
        <mxCell id="0Lrlu-qv5Ai_E4A3H0q1-1" style="edgeStyle=orthogonalEdgeStyle;rounded=0;orthogonalLoop=1;jettySize=auto;html=1;entryX=0.5;entryY=0;entryDx=0;entryDy=0;" parent="1" source="lHIER-hWCcCnwrUCbrE2-33" target="lHIER-hWCcCnwrUCbrE2-39" edge="1">
          <mxGeometry relative="1" as="geometry">
            <Array as="points">
              <mxPoint x="421" y="510" />
              <mxPoint x="421" y="510" />
            </Array>
          </mxGeometry>
        </mxCell>
        <mxCell id="UUuxnmSjePbL8f6yz8bE-1" style="edgeStyle=orthogonalEdgeStyle;rounded=0;orthogonalLoop=1;jettySize=auto;html=1;" parent="1" source="lHIER-hWCcCnwrUCbrE2-33" target="0Lrlu-qv5Ai_E4A3H0q1-7" edge="1">
          <mxGeometry relative="1" as="geometry">
            <Array as="points">
              <mxPoint x="360" y="600" />
            </Array>
          </mxGeometry>
        </mxCell>
        <mxCell id="lHIER-hWCcCnwrUCbrE2-33" value="Materias" style="rounded=0;whiteSpace=wrap;html=1;" parent="1" vertex="1">
          <mxGeometry x="334" y="440" width="120" height="60" as="geometry" />
        </mxCell>
        <mxCell id="lHIER-hWCcCnwrUCbrE2-34" value="" style="edgeStyle=orthogonalEdgeStyle;rounded=0;orthogonalLoop=1;jettySize=auto;html=1;" parent="1" source="lHIER-hWCcCnwrUCbrE2-35" target="lHIER-hWCcCnwrUCbrE2-33" edge="1">
          <mxGeometry relative="1" as="geometry" />
        </mxCell>
        <mxCell id="lHIER-hWCcCnwrUCbrE2-35" value="Dan" style="rhombus;whiteSpace=wrap;html=1;" parent="1" vertex="1">
          <mxGeometry x="494" y="440" width="50" height="60" as="geometry" />
        </mxCell>
        <mxCell id="lHIER-hWCcCnwrUCbrE2-36" value="" style="edgeStyle=orthogonalEdgeStyle;rounded=0;orthogonalLoop=1;jettySize=auto;html=1;" parent="1" source="lHIER-hWCcCnwrUCbrE2-37" target="lHIER-hWCcCnwrUCbrE2-33" edge="1">
          <mxGeometry relative="1" as="geometry" />
        </mxCell>
        <mxCell id="lHIER-hWCcCnwrUCbrE2-37" value="Tienen" style="rhombus;whiteSpace=wrap;html=1;" parent="1" vertex="1">
          <mxGeometry x="254" y="440" width="50" height="60" as="geometry" />
        </mxCell>
        <mxCell id="UUuxnmSjePbL8f6yz8bE-3" style="edgeStyle=orthogonalEdgeStyle;rounded=0;orthogonalLoop=1;jettySize=auto;html=1;entryX=0.5;entryY=0;entryDx=0;entryDy=0;" parent="1" source="lHIER-hWCcCnwrUCbrE2-39" target="lHIER-hWCcCnwrUCbrE2-6" edge="1">
          <mxGeometry relative="1" as="geometry" />
        </mxCell>
        <mxCell id="lHIER-hWCcCnwrUCbrE2-39" value="Necesitan" style="rhombus;whiteSpace=wrap;html=1;" parent="1" vertex="1">
          <mxGeometry x="387" y="528" width="68" height="70" as="geometry" />
        </mxCell>
        <mxCell id="lHIER-hWCcCnwrUCbrE2-40" style="edgeStyle=orthogonalEdgeStyle;rounded=0;orthogonalLoop=1;jettySize=auto;html=1;exitX=1;exitY=0.5;exitDx=0;exitDy=0;entryX=0.5;entryY=0;entryDx=0;entryDy=0;" parent="1" source="lHIER-hWCcCnwrUCbrE2-41" target="lHIER-hWCcCnwrUCbrE2-33" edge="1">
          <mxGeometry relative="1" as="geometry">
            <Array as="points">
              <mxPoint x="320" y="370" />
              <mxPoint x="320" y="410" />
              <mxPoint x="394" y="410" />
            </Array>
          </mxGeometry>
        </mxCell>
        <mxCell id="lHIER-hWCcCnwrUCbrE2-41" value="Id_materias" style="ellipse;whiteSpace=wrap;html=1;aspect=fixed;fillColor=#FF0000;" parent="1" vertex="1">
          <mxGeometry x="291.5" y="338" width="57" height="57" as="geometry" />
        </mxCell>
        <mxCell id="lHIER-hWCcCnwrUCbrE2-42" style="edgeStyle=orthogonalEdgeStyle;rounded=0;orthogonalLoop=1;jettySize=auto;html=1;exitX=0;exitY=0.5;exitDx=0;exitDy=0;" parent="1" source="lHIER-hWCcCnwrUCbrE2-43" target="lHIER-hWCcCnwrUCbrE2-33" edge="1">
          <mxGeometry relative="1" as="geometry">
            <Array as="points">
              <mxPoint x="410" y="400" />
            </Array>
          </mxGeometry>
        </mxCell>
        <mxCell id="lHIER-hWCcCnwrUCbrE2-43" value="Nombre" style="ellipse;whiteSpace=wrap;html=1;aspect=fixed;" parent="1" vertex="1">
          <mxGeometry x="424" y="338" width="50" height="50" as="geometry" />
        </mxCell>
        <mxCell id="lHIER-hWCcCnwrUCbrE2-44" style="edgeStyle=orthogonalEdgeStyle;rounded=0;orthogonalLoop=1;jettySize=auto;html=1;exitX=0;exitY=0.5;exitDx=0;exitDy=0;entryX=1;entryY=0.5;entryDx=0;entryDy=0;" parent="1" source="lHIER-hWCcCnwrUCbrE2-45" target="lHIER-hWCcCnwrUCbrE2-5" edge="1">
          <mxGeometry relative="1" as="geometry">
            <Array as="points">
              <mxPoint x="750" y="470" />
            </Array>
          </mxGeometry>
        </mxCell>
        <mxCell id="lHIER-hWCcCnwrUCbrE2-45" value="Id_profesores" style="ellipse;whiteSpace=wrap;html=1;aspect=fixed;fillColor=#FF0000;" parent="1" vertex="1">
          <mxGeometry x="720" y="490" width="70" height="70" as="geometry" />
        </mxCell>
        <mxCell id="lHIER-hWCcCnwrUCbrE2-46" value="Cursos" style="rounded=0;whiteSpace=wrap;html=1;" parent="1" vertex="1">
          <mxGeometry x="-88" y="610" width="120" height="60" as="geometry" />
        </mxCell>
        <mxCell id="lHIER-hWCcCnwrUCbrE2-54" value="Id_curso" style="ellipse;whiteSpace=wrap;html=1;aspect=fixed;fillColor=#FF0000;" parent="1" vertex="1">
          <mxGeometry x="-153" y="670" width="65" height="65" as="geometry" />
        </mxCell>
        <mxCell id="lHIER-hWCcCnwrUCbrE2-55" value="Nombre" style="ellipse;whiteSpace=wrap;html=1;aspect=fixed;" parent="1" vertex="1">
          <mxGeometry x="-98" y="750" width="60" height="60" as="geometry" />
        </mxCell>
        <mxCell id="lHIER-hWCcCnwrUCbrE2-56" value="Id_materias" style="ellipse;whiteSpace=wrap;html=1;aspect=fixed;fillColor=#3333FF;" parent="1" vertex="1">
          <mxGeometry x="62" y="670" width="65" height="65" as="geometry" />
        </mxCell>
        <mxCell id="lHIER-hWCcCnwrUCbrE2-57" value="Id_profesores" style="ellipse;whiteSpace=wrap;html=1;aspect=fixed;fillColor=#3333FF;" parent="1" vertex="1">
          <mxGeometry x="32" y="735" width="75" height="75" as="geometry" />
        </mxCell>
        <mxCell id="lHIER-hWCcCnwrUCbrE2-58" value="" style="edgeStyle=orthogonalEdgeStyle;rounded=0;orthogonalLoop=1;jettySize=auto;html=1;" parent="1" source="lHIER-hWCcCnwrUCbrE2-54" target="lHIER-hWCcCnwrUCbrE2-46" edge="1">
          <mxGeometry relative="1" as="geometry">
            <mxPoint x="-88" y="710" as="sourcePoint" />
            <mxPoint x="-68" y="670" as="targetPoint" />
            <Array as="points">
              <mxPoint x="-68" y="710" />
            </Array>
          </mxGeometry>
        </mxCell>
        <mxCell id="lHIER-hWCcCnwrUCbrE2-59" value="" style="edgeStyle=orthogonalEdgeStyle;rounded=0;orthogonalLoop=1;jettySize=auto;html=1;" parent="1" source="lHIER-hWCcCnwrUCbrE2-56" target="lHIER-hWCcCnwrUCbrE2-46" edge="1">
          <mxGeometry relative="1" as="geometry">
            <mxPoint x="58" y="710" as="sourcePoint" />
            <mxPoint x="22" y="670" as="targetPoint" />
            <Array as="points">
              <mxPoint x="22" y="710" />
            </Array>
          </mxGeometry>
        </mxCell>
        <mxCell id="lHIER-hWCcCnwrUCbrE2-60" value="" style="edgeStyle=orthogonalEdgeStyle;rounded=0;orthogonalLoop=1;jettySize=auto;html=1;" parent="1" source="lHIER-hWCcCnwrUCbrE2-55" target="lHIER-hWCcCnwrUCbrE2-46" edge="1">
          <mxGeometry relative="1" as="geometry">
            <mxPoint x="-58" y="740" as="sourcePoint" />
            <mxPoint x="-52" y="670" as="targetPoint" />
            <Array as="points">
              <mxPoint x="-78" y="730" />
              <mxPoint x="-32" y="730" />
            </Array>
          </mxGeometry>
        </mxCell>
        <mxCell id="lHIER-hWCcCnwrUCbrE2-61" value="" style="edgeStyle=orthogonalEdgeStyle;rounded=0;orthogonalLoop=1;jettySize=auto;html=1;" parent="1" source="lHIER-hWCcCnwrUCbrE2-57" target="lHIER-hWCcCnwrUCbrE2-46" edge="1">
          <mxGeometry relative="1" as="geometry">
            <mxPoint x="-12" y="765" as="sourcePoint" />
            <mxPoint x="-12" y="670" as="targetPoint" />
            <Array as="points">
              <mxPoint x="2" y="710" />
              <mxPoint x="-12" y="710" />
            </Array>
          </mxGeometry>
        </mxCell>
        <mxCell id="lHIER-hWCcCnwrUCbrE2-62" value="Autor" style="ellipse;whiteSpace=wrap;html=1;aspect=fixed;" parent="1" vertex="1">
          <mxGeometry x="644.5" y="750" width="54" height="54" as="geometry" />
        </mxCell>
        <mxCell id="lHIER-hWCcCnwrUCbrE2-63" value="" style="edgeStyle=orthogonalEdgeStyle;rounded=0;orthogonalLoop=1;jettySize=auto;html=1;exitX=0;exitY=0.5;exitDx=0;exitDy=0;" parent="1" source="lHIER-hWCcCnwrUCbrE2-62" target="lHIER-hWCcCnwrUCbrE2-6" edge="1">
          <mxGeometry relative="1" as="geometry">
            <mxPoint x="524.5" y="792" as="sourcePoint" />
            <mxPoint x="533" y="722" as="targetPoint" />
            <Array as="points">
              <mxPoint x="644.5" y="780" />
              <mxPoint x="533.5" y="780" />
            </Array>
          </mxGeometry>
        </mxCell>
        <mxCell id="lHIER-hWCcCnwrUCbrE2-64" value="" style="edgeStyle=orthogonalEdgeStyle;rounded=0;orthogonalLoop=1;jettySize=auto;html=1;exitX=0;exitY=0.5;exitDx=0;exitDy=0;" parent="1" source="lHIER-hWCcCnwrUCbrE2-96" target="lHIER-hWCcCnwrUCbrE2-6" edge="1">
          <mxGeometry relative="1" as="geometry">
            <mxPoint x="568.4999999999941" y="815.5" as="sourcePoint" />
            <mxPoint x="508.5" y="720" as="targetPoint" />
            <Array as="points">
              <mxPoint x="568.5" y="810" />
              <mxPoint x="508.5" y="810" />
            </Array>
          </mxGeometry>
        </mxCell>
        <mxCell id="lHIER-hWCcCnwrUCbrE2-67" value="" style="edgeStyle=orthogonalEdgeStyle;rounded=0;orthogonalLoop=1;jettySize=auto;html=1;entryX=0.75;entryY=0;entryDx=0;entryDy=0;" parent="1" source="lHIER-hWCcCnwrUCbrE2-95" target="lHIER-hWCcCnwrUCbrE2-33" edge="1">
          <mxGeometry relative="1" as="geometry">
            <mxPoint x="515.9999999999909" y="412" as="sourcePoint" />
            <mxPoint x="404" y="640" as="targetPoint" />
            <Array as="points">
              <mxPoint x="424" y="412" />
            </Array>
          </mxGeometry>
        </mxCell>
        <mxCell id="lHIER-hWCcCnwrUCbrE2-68" style="edgeStyle=orthogonalEdgeStyle;rounded=0;orthogonalLoop=1;jettySize=auto;html=1;entryX=0;entryY=0.5;entryDx=0;entryDy=0;exitX=0.5;exitY=1;exitDx=0;exitDy=0;" parent="1" source="lHIER-hWCcCnwrUCbrE2-69" target="lHIER-hWCcCnwrUCbrE2-2" edge="1">
          <mxGeometry relative="1" as="geometry" />
        </mxCell>
        <mxCell id="lHIER-hWCcCnwrUCbrE2-69" value="Apellidos" style="ellipse;whiteSpace=wrap;html=1;aspect=fixed;" parent="1" vertex="1">
          <mxGeometry x="-50" y="374" width="50" height="50" as="geometry" />
        </mxCell>
        <mxCell id="lHIER-hWCcCnwrUCbrE2-70" style="edgeStyle=orthogonalEdgeStyle;rounded=0;orthogonalLoop=1;jettySize=auto;html=1;entryX=1;entryY=0.5;entryDx=0;entryDy=0;" parent="1" source="lHIER-hWCcCnwrUCbrE2-71" target="lHIER-hWCcCnwrUCbrE2-5" edge="1">
          <mxGeometry relative="1" as="geometry">
            <Array as="points">
              <mxPoint x="760" y="420" />
              <mxPoint x="760" y="470" />
            </Array>
          </mxGeometry>
        </mxCell>
        <mxCell id="lHIER-hWCcCnwrUCbrE2-71" value="DNI" style="ellipse;whiteSpace=wrap;html=1;aspect=fixed;" parent="1" vertex="1">
          <mxGeometry x="780" y="395" width="50" height="50" as="geometry" />
        </mxCell>
        <mxCell id="lHIER-hWCcCnwrUCbrE2-72" style="edgeStyle=orthogonalEdgeStyle;rounded=0;orthogonalLoop=1;jettySize=auto;html=1;entryX=1;entryY=0.5;entryDx=0;entryDy=0;" parent="1" source="lHIER-hWCcCnwrUCbrE2-73" target="lHIER-hWCcCnwrUCbrE2-5" edge="1">
          <mxGeometry relative="1" as="geometry">
            <Array as="points">
              <mxPoint x="1010" y="470" />
              <mxPoint x="1010" y="470" />
            </Array>
          </mxGeometry>
        </mxCell>
        <mxCell id="lHIER-hWCcCnwrUCbrE2-73" value="&lt;div&gt;Apellidos&lt;br&gt;&lt;/div&gt;" style="ellipse;whiteSpace=wrap;html=1;aspect=fixed;" parent="1" vertex="1">
          <mxGeometry x="980" y="440" width="50" height="50" as="geometry" />
        </mxCell>
        <mxCell id="lHIER-hWCcCnwrUCbrE2-74" style="edgeStyle=orthogonalEdgeStyle;rounded=0;orthogonalLoop=1;jettySize=auto;html=1;entryX=1;entryY=0.5;entryDx=0;entryDy=0;" parent="1" source="lHIER-hWCcCnwrUCbrE2-97" target="lHIER-hWCcCnwrUCbrE2-5" edge="1">
          <mxGeometry relative="1" as="geometry">
            <mxPoint x="980.0000000000005" y="405" as="sourcePoint" />
            <Array as="points">
              <mxPoint x="950" y="405" />
              <mxPoint x="950" y="470" />
            </Array>
          </mxGeometry>
        </mxCell>
        <mxCell id="lHIER-hWCcCnwrUCbrE2-77" style="edgeStyle=orthogonalEdgeStyle;rounded=0;orthogonalLoop=1;jettySize=auto;html=1;entryX=1;entryY=0.5;entryDx=0;entryDy=0;" parent="1" source="lHIER-hWCcCnwrUCbrE2-78" target="lHIER-hWCcCnwrUCbrE2-5" edge="1">
          <mxGeometry relative="1" as="geometry">
            <Array as="points">
              <mxPoint x="840" y="470" />
            </Array>
          </mxGeometry>
        </mxCell>
        <mxCell id="lHIER-hWCcCnwrUCbrE2-78" value="Id_materias" style="ellipse;whiteSpace=wrap;html=1;aspect=fixed;fillColor=#3333FF;" parent="1" vertex="1">
          <mxGeometry x="850" y="490" width="70" height="70" as="geometry" />
        </mxCell>
        <mxCell id="lHIER-hWCcCnwrUCbrE2-79" style="edgeStyle=orthogonalEdgeStyle;rounded=0;orthogonalLoop=1;jettySize=auto;html=1;entryX=0;entryY=0.5;entryDx=0;entryDy=0;" parent="1" source="lHIER-hWCcCnwrUCbrE2-80" target="lHIER-hWCcCnwrUCbrE2-2" edge="1">
          <mxGeometry relative="1" as="geometry">
            <Array as="points">
              <mxPoint x="50" y="470" />
            </Array>
          </mxGeometry>
        </mxCell>
        <mxCell id="lHIER-hWCcCnwrUCbrE2-80" value="Nombre" style="ellipse;whiteSpace=wrap;html=1;aspect=fixed;" parent="1" vertex="1">
          <mxGeometry x="30" y="377" width="44" height="44" as="geometry" />
        </mxCell>
        <mxCell id="lHIER-hWCcCnwrUCbrE2-81" style="edgeStyle=orthogonalEdgeStyle;rounded=0;orthogonalLoop=1;jettySize=auto;html=1;" parent="1" source="lHIER-hWCcCnwrUCbrE2-82" target="lHIER-hWCcCnwrUCbrE2-2" edge="1">
          <mxGeometry relative="1" as="geometry" />
        </mxCell>
        <mxCell id="lHIER-hWCcCnwrUCbrE2-82" value="Nªlegajo" style="ellipse;whiteSpace=wrap;html=1;aspect=fixed;" parent="1" vertex="1">
          <mxGeometry x="-190" y="445" width="50" height="50" as="geometry" />
        </mxCell>
        <mxCell id="lHIER-hWCcCnwrUCbrE2-89" style="edgeStyle=orthogonalEdgeStyle;rounded=0;orthogonalLoop=1;jettySize=auto;html=1;entryX=0;entryY=0.5;entryDx=0;entryDy=0;" parent="1" source="lHIER-hWCcCnwrUCbrE2-90" target="lHIER-hWCcCnwrUCbrE2-94" edge="1">
          <mxGeometry relative="1" as="geometry" />
        </mxCell>
        <mxCell id="lHIER-hWCcCnwrUCbrE2-90" value="Manual" style="ellipse;whiteSpace=wrap;html=1;aspect=fixed;" parent="1" vertex="1">
          <mxGeometry x="277" y="748.25" width="57.5" height="57.5" as="geometry" />
        </mxCell>
        <mxCell id="lHIER-hWCcCnwrUCbrE2-91" style="edgeStyle=orthogonalEdgeStyle;rounded=0;orthogonalLoop=1;jettySize=auto;html=1;entryX=0;entryY=0.5;entryDx=0;entryDy=0;" parent="1" source="lHIER-hWCcCnwrUCbrE2-92" target="lHIER-hWCcCnwrUCbrE2-94" edge="1">
          <mxGeometry relative="1" as="geometry" />
        </mxCell>
        <mxCell id="lHIER-hWCcCnwrUCbrE2-92" value="Literario" style="ellipse;whiteSpace=wrap;html=1;aspect=fixed;" parent="1" vertex="1">
          <mxGeometry x="277" y="810" width="57.5" height="57.5" as="geometry" />
        </mxCell>
        <mxCell id="lHIER-hWCcCnwrUCbrE2-93" style="edgeStyle=orthogonalEdgeStyle;rounded=0;orthogonalLoop=1;jettySize=auto;html=1;entryX=0.359;entryY=0.999;entryDx=0;entryDy=0;entryPerimeter=0;" parent="1" source="lHIER-hWCcCnwrUCbrE2-94" target="lHIER-hWCcCnwrUCbrE2-6" edge="1">
          <mxGeometry relative="1" as="geometry">
            <Array as="points">
              <mxPoint x="491.5" y="812" />
            </Array>
          </mxGeometry>
        </mxCell>
        <mxCell id="lHIER-hWCcCnwrUCbrE2-94" value="Categoria" style="ellipse;shape=doubleEllipse;margin=3;whiteSpace=wrap;html=1;align=center;" parent="1" vertex="1">
          <mxGeometry x="384.5" y="792" width="100" height="40" as="geometry" />
        </mxCell>
        <mxCell id="lHIER-hWCcCnwrUCbrE2-95" value="Cursos" style="ellipse;shape=doubleEllipse;margin=3;whiteSpace=wrap;html=1;align=center;" parent="1" vertex="1">
          <mxGeometry x="514" y="390" width="100" height="40" as="geometry" />
        </mxCell>
        <mxCell id="lHIER-hWCcCnwrUCbrE2-96" value="Materias" style="ellipse;shape=doubleEllipse;margin=3;whiteSpace=wrap;html=1;align=center;" parent="1" vertex="1">
          <mxGeometry x="518.4999999999941" y="795.5" width="100" height="40" as="geometry" />
        </mxCell>
        <mxCell id="lHIER-hWCcCnwrUCbrE2-97" value="Materias" style="ellipse;shape=doubleEllipse;margin=3;whiteSpace=wrap;html=1;align=center;" parent="1" vertex="1">
          <mxGeometry x="970" y="384" width="100" height="40" as="geometry" />
        </mxCell>
        <mxCell id="lHIER-hWCcCnwrUCbrE2-106" style="edgeStyle=orthogonalEdgeStyle;rounded=0;orthogonalLoop=1;jettySize=auto;html=1;entryX=0;entryY=0.5;entryDx=0;entryDy=0;" parent="1" source="lHIER-hWCcCnwrUCbrE2-107" target="lHIER-hWCcCnwrUCbrE2-2" edge="1">
          <mxGeometry relative="1" as="geometry">
            <mxPoint x="-50" y="470" as="targetPoint" />
            <Array as="points">
              <mxPoint x="-40" y="470" />
            </Array>
          </mxGeometry>
        </mxCell>
        <mxCell id="lHIER-hWCcCnwrUCbrE2-107" value="&lt;div&gt;Id_materias&lt;/div&gt;" style="ellipse;whiteSpace=wrap;html=1;aspect=fixed;fillColor=#3333FF;" parent="1" vertex="1">
          <mxGeometry x="-70" y="510" width="60" height="60" as="geometry" />
        </mxCell>
        <mxCell id="lHIER-hWCcCnwrUCbrE2-108" value="m" style="text;html=1;align=center;verticalAlign=middle;resizable=0;points=[];autosize=1;strokeColor=none;fillColor=none;" parent="1" vertex="1">
          <mxGeometry x="424" y="500" width="30" height="30" as="geometry" />
        </mxCell>
        <mxCell id="lHIER-hWCcCnwrUCbrE2-109" value="m" style="text;html=1;align=center;verticalAlign=middle;resizable=0;points=[];autosize=1;strokeColor=none;fillColor=none;" parent="1" vertex="1">
          <mxGeometry x="514" y="635" width="30" height="30" as="geometry" />
        </mxCell>
        <mxCell id="lHIER-hWCcCnwrUCbrE2-110" value="1" style="text;html=1;align=center;verticalAlign=middle;resizable=0;points=[];autosize=1;strokeColor=none;fillColor=none;" parent="1" vertex="1">
          <mxGeometry x="205" y="468" width="30" height="30" as="geometry" />
        </mxCell>
        <mxCell id="lHIER-hWCcCnwrUCbrE2-111" value="m" style="text;html=1;align=center;verticalAlign=middle;resizable=0;points=[];autosize=1;strokeColor=none;fillColor=none;" parent="1" vertex="1">
          <mxGeometry x="305" y="468" width="30" height="30" as="geometry" />
        </mxCell>
        <mxCell id="lHIER-hWCcCnwrUCbrE2-112" value="1" style="text;html=1;align=center;verticalAlign=middle;resizable=0;points=[];autosize=1;strokeColor=none;fillColor=none;" parent="1" vertex="1">
          <mxGeometry x="555" y="468" width="30" height="30" as="geometry" />
        </mxCell>
        <mxCell id="lHIER-hWCcCnwrUCbrE2-113" value="m" style="text;html=1;align=center;verticalAlign=middle;resizable=0;points=[];autosize=1;strokeColor=none;fillColor=none;" parent="1" vertex="1">
          <mxGeometry x="455" y="468" width="30" height="30" as="geometry" />
        </mxCell>
        <mxCell id="H7JEpKfbMmZBw9DiaiyD-3" style="edgeStyle=orthogonalEdgeStyle;rounded=0;orthogonalLoop=1;jettySize=auto;html=1;entryX=1;entryY=0.5;entryDx=0;entryDy=0;" parent="1" source="H7JEpKfbMmZBw9DiaiyD-1" target="lHIER-hWCcCnwrUCbrE2-6" edge="1">
          <mxGeometry relative="1" as="geometry" />
        </mxCell>
        <mxCell id="H7JEpKfbMmZBw9DiaiyD-1" value="Suben" style="rhombus;whiteSpace=wrap;html=1;" parent="1" vertex="1">
          <mxGeometry x="653.5" y="620" width="80" height="80" as="geometry" />
        </mxCell>
        <mxCell id="EwnWERQI6gUaVK5dbK-j-2" style="edgeStyle=orthogonalEdgeStyle;rounded=0;orthogonalLoop=1;jettySize=auto;html=1;entryX=0;entryY=0.75;entryDx=0;entryDy=0;" parent="1" source="EwnWERQI6gUaVK5dbK-j-1" target="lHIER-hWCcCnwrUCbrE2-6" edge="1">
          <mxGeometry relative="1" as="geometry" />
        </mxCell>
        <mxCell id="EwnWERQI6gUaVK5dbK-j-1" value="&lt;div&gt;Id_profesores&lt;/div&gt;" style="ellipse;whiteSpace=wrap;html=1;aspect=fixed;fillColor=#3333FF;" parent="1" vertex="1">
          <mxGeometry x="328.5" y="670" width="70" height="70" as="geometry" />
        </mxCell>
        <mxCell id="vAFgjMCab8GbP_xqHmji-2" style="edgeStyle=orthogonalEdgeStyle;rounded=0;orthogonalLoop=1;jettySize=auto;html=1;entryX=0;entryY=0.25;entryDx=0;entryDy=0;" parent="1" source="vAFgjMCab8GbP_xqHmji-1" target="lHIER-hWCcCnwrUCbrE2-6" edge="1">
          <mxGeometry relative="1" as="geometry">
            <Array as="points">
              <mxPoint x="284.5" y="650" />
              <mxPoint x="404.5" y="650" />
              <mxPoint x="404.5" y="675" />
            </Array>
          </mxGeometry>
        </mxCell>
        <mxCell id="vAFgjMCab8GbP_xqHmji-1" value="&lt;div&gt;Id_materias&lt;/div&gt;" style="ellipse;whiteSpace=wrap;html=1;aspect=fixed;fillColor=#3333FF;" parent="1" vertex="1">
          <mxGeometry x="244.5" y="670" width="70" height="70" as="geometry" />
        </mxCell>
        <mxCell id="0Lrlu-qv5Ai_E4A3H0q1-8" style="edgeStyle=orthogonalEdgeStyle;rounded=0;orthogonalLoop=1;jettySize=auto;html=1;" parent="1" source="0Lrlu-qv5Ai_E4A3H0q1-7" target="lHIER-hWCcCnwrUCbrE2-46" edge="1">
          <mxGeometry relative="1" as="geometry" />
        </mxCell>
        <mxCell id="0Lrlu-qv5Ai_E4A3H0q1-7" value="Estan" style="rhombus;whiteSpace=wrap;html=1;" parent="1" vertex="1">
          <mxGeometry x="223.5" y="565" width="68" height="70" as="geometry" />
        </mxCell>
      </root>
    </mxGraphModel>
  </diagram>
</mxfile>
